# This file uses centimeters as units for non-parametric coordinates.

mtllib icon_video.mtl
g default
v 27.319136 -9.692153 -2.528949
v 27.158291 -11.368376 -2.528949
v 26.109375 -18.715210 -2.528949
v -27.239201 -18.710543 -2.528949
v 4.750963 42.090355 -2.528949
v -0.652940 35.265980 -2.528949
v -26.981730 13.874551 -2.528949
v 27.160736 4.503897 -2.528949
v 26.781532 12.776687 -2.528949
v 48.635902 14.571626 -2.528949
v 48.904083 -19.429733 -2.528949
v -4.804646 40.964714 -2.528949
v -26.287800 14.374348 -2.528949
v -8.092463 14.487497 -2.528949
v -25.853079 14.920613 -2.528951
v -30.023561 37.807446 -2.528949
v -16.498072 45.161499 -2.528949
v -32.813805 27.318598 -2.528949
v -32.576157 31.006031 -2.528949
v -25.953772 14.577394 -2.528949
v 24.273979 14.881517 -2.528949
v 7.084191 14.778454 -2.528949
v 17.299612 45.307705 -2.528949
v -32.205772 23.848690 -2.528949
v -0.505534 21.396162 -2.528949
v 31.534367 27.573153 -2.528949
v 29.596952 36.819954 -2.528949
v 27.319136 -9.692153 2.528951
v 27.158291 -11.368376 2.528951
v 27.122250 4.050698 2.528951
v 33.424374 -2.742867 2.528951
v 0.121562 -2.762691 2.528951
v 26.109375 -18.715210 2.528951
v -27.239201 -18.710543 2.528951
v -0.652940 35.265980 2.528951
v 4.750963 42.090355 2.528951
v 14.934304 27.898060 2.528951
v 14.776018 27.801746 2.528951
v -0.589151 28.011354 2.528951
v -26.981730 13.874551 2.528951
v 26.781532 12.776687 2.528951
v 27.160736 4.503897 2.528951
v 48.635902 14.571626 2.528951
v 48.904083 -19.429733 2.528951
v -15.275959 28.211670 2.528951
v -4.804646 40.964714 2.528951
v -26.287800 14.374348 2.528951
v -8.092463 14.487497 2.528951
v -25.853079 14.920613 2.528949
v -15.555983 27.859787 2.528951
v -15.352257 28.212723 2.528951
v -30.023561 37.807446 2.528951
v -16.498072 45.161499 2.528951
v -15.303823 28.212057 2.528951
v -32.813805 27.318598 2.528951
v -32.576157 31.006031 2.528951
v -25.953772 14.577394 2.528951
v 7.084191 14.778454 2.528951
v 24.273979 14.881517 2.528951
v 15.005656 27.798615 2.528951
v 15.406245 27.793156 2.528951
v 15.451621 28.212837 2.528951
v 17.299612 45.307705 2.528951
v -32.205772 23.848690 2.528951
v -15.301529 28.179541 2.528951
v -0.505534 21.396162 2.528951
v 15.354322 27.312693 2.528951
v 31.534367 27.573153 2.528951
v 29.596952 36.819954 2.528951
vt 0.448300 0.328076
vt 0.718087 0.411064
vt 0.781057 0.328318
vt 0.442034 0.587098
vt 0.294194 0.704956
vt 0.188764 0.543461
vt 0.184420 0.536807
vt 0.596307 0.701528
vt 0.291651 0.701062
vt 0.297131 0.538186
vt 0.293687 0.705360
vt 0.294171 0.705352
vt 0.294449 0.705348
vt 0.441198 0.702908
vt 0.594725 0.700355
vt 0.597020 0.700316
vt 0.586965 0.541729
vt 0.600504 0.694398
vt 0.601022 0.700250
vt 0.601476 0.705362
vt 0.718447 0.223258
vt 0.720054 0.243675
vt 0.174914 0.133830
vt 0.707967 0.133773
vt 0.494556 0.874392
vt 0.440561 0.791270
vt 0.177487 0.530720
vt 0.718472 0.416584
vt 0.714683 0.517348
vt 0.935729 0.125070
vt 0.933049 0.539210
vt 0.399078 0.860681
vt 0.282238 0.911799
vt 0.147093 0.822225
vt 0.121588 0.739383
vt 0.119213 0.694470
vt 0.188764 0.543461
vt 0.187758 0.539281
vt 0.184420 0.536807
vt 0.689628 0.542985
vt 0.619941 0.913579
vt 0.125289 0.652206
vt 0.762173 0.697570
vt 0.742814 0.810197
vt 0.718447 0.223258
vt 0.720054 0.243675
vt 0.174914 0.133830
vt 0.707967 0.133773
vt 0.494556 0.874392
vt 0.440561 0.791270
vt 0.177487 0.530720
vt 0.718472 0.416584
vt 0.714683 0.517348
vt 0.935729 0.125070
vt 0.933049 0.539210
vt 0.399078 0.860681
vt 0.282238 0.911799
vt 0.147093 0.822225
vt 0.121588 0.739383
vt 0.119213 0.694470
vt 0.188764 0.543461
vt 0.187758 0.539281
vt 0.184420 0.536807
vt 0.586965 0.541729
vt 0.297131 0.538186
vt 0.689628 0.542985
vt 0.619941 0.913579
vt 0.125289 0.652206
vt 0.442034 0.587098
vt 0.762173 0.697570
vt 0.742814 0.810197
vn -0.000000 0.000000 1.000000
vn -0.000000 0.000000 1.000000
vn 0.000000 0.000000 1.000000
vn 0.000000 0.000000 1.000000
vn 0.000000 0.000000 1.000000
vn 0.000000 0.000000 1.000000
vn 0.000000 0.000000 1.000000
vn 0.000000 0.000000 1.000000
vn 0.000000 0.000000 1.000000
vn 0.000000 0.000000 1.000000
vn 0.000000 0.000000 1.000000
vn 0.000000 0.000000 1.000000
vn 0.000000 0.000000 1.000000
vn 0.000000 0.000000 1.000000
vn 0.000000 0.000000 1.000000
vn 0.000000 0.000000 1.000000
vn 0.000000 0.000000 1.000000
vn -0.000000 0.000000 1.000000
vn 0.000000 0.000000 1.000000
vn -0.000000 0.000000 1.000000
vn -0.000000 -0.000000 1.000000
vn -0.000000 0.000000 1.000000
vn -0.000000 -0.000000 1.000000
vn -0.000000 0.000000 1.000000
vn -0.000000 0.000000 1.000000
vn -0.000000 0.000000 1.000000
vn -0.000000 0.000000 1.000000
vn 0.000000 0.000000 1.000000
vn 0.000000 0.000000 1.000000
vn 0.000004 -0.000006 -1.000000
vn 0.000004 -0.000006 -1.000000
vn 0.000004 -0.000006 -1.000000
vn -0.000000 0.000000 1.000000
vn -0.000000 0.000000 1.000000
vn -0.000000 0.000000 1.000000
vn -0.000000 0.000000 1.000000
vn 0.000000 0.000000 1.000000
vn 0.000000 0.000000 1.000000
vn 0.000000 -0.000000 1.000000
vn -0.000000 0.000000 1.000000
vn -0.000000 0.000000 1.000000
vn -0.000000 0.000000 1.000000
vn 0.000000 0.000000 1.000000
vn 0.000000 0.000000 1.000000
vn 0.995428 -0.095518 0.000000
vn 0.995428 -0.095518 0.000000
vn 0.995428 -0.095518 0.000000
vn 0.995428 -0.095518 0.000000
vn -0.000087 -1.000000 0.000000
vn -0.000087 -1.000000 0.000000
vn -0.000087 -1.000000 0.000000
vn -0.000087 -1.000000 0.000000
vn -0.783975 0.620793 0.000000
vn -0.783975 0.620793 0.000000
vn -0.783975 0.620793 0.000000
vn -0.783975 0.620793 0.000000
vn -0.999969 0.007901 0.000000
vn -0.999969 0.007901 0.000000
vn -0.999969 0.007901 0.000000
vn -0.999969 0.007901 0.000000
vn 0.998951 0.045789 0.000000
vn 0.998951 0.045789 0.000000
vn 0.998951 0.045789 0.000000
vn 0.998951 0.045789 0.000000
vn 0.989961 -0.141338 0.000000
vn 0.989961 -0.141338 0.000000
vn 0.989961 -0.141338 0.000000
vn 0.989961 -0.141338 0.000000
vn 0.999969 0.007887 0.000000
vn 0.999969 0.007887 0.000000
vn 0.999969 0.007887 0.000000
vn 0.999969 0.007887 0.000000
vn -0.424477 0.905439 0.000000
vn -0.424477 0.905439 0.000000
vn -0.424477 0.905439 0.000000
vn -0.424477 0.905439 0.000000
vn -0.411220 -0.911536 0.000000
vn -0.411220 -0.911536 0.000000
vn -0.411220 -0.911536 0.000000
vn -0.411220 -0.911536 0.000000
vn 0.808252 0.588837 0.000000
vn 0.808252 0.588837 0.000000
vn 0.808252 0.588837 0.000000
vn 0.808252 0.588837 0.000000
vn -0.477676 0.878536 0.000000
vn -0.477676 0.878536 0.000000
vn -0.477676 0.878536 0.000000
vn -0.477676 0.878536 0.000000
vn -0.936236 0.351373 0.000000
vn -0.936236 0.351373 0.000000
vn -0.936236 0.351373 0.000000
vn -0.936236 0.351373 0.000000
vn -0.997930 0.064315 0.000000
vn -0.997930 0.064315 0.000000
vn -0.997930 0.064315 0.000000
vn -0.997930 0.064315 0.000000
vn -0.959560 0.281504 0.000000
vn -0.959560 0.281504 0.000000
vn -0.959560 0.281504 0.000000
vn -0.959560 0.281504 0.000000
vn -0.519433 0.854511 0.000000
vn -0.519433 0.854511 0.000000
vn -0.519433 0.854511 0.000000
vn -0.519433 0.854511 0.000000
vn -0.584434 0.811442 0.000000
vn -0.584434 0.811442 0.000000
vn -0.584434 0.811442 0.000000
vn -0.584434 0.811442 0.000000
vn -0.019168 0.999816 0.000000
vn -0.019168 0.999816 0.000000
vn -0.019168 0.999816 0.000000
vn -0.019168 0.999816 0.000000
vn 0.642921 0.765933 0.000000
vn 0.642921 0.765933 0.000000
vn 0.642921 0.765933 0.000000
vn 0.642921 0.765933 0.000000
vn -0.248357 0.968669 0.000000
vn -0.248357 0.968669 0.000000
vn -0.248357 0.968669 0.000000
vn -0.248357 0.968669 0.000000
vn 0.337804 0.941217 0.000000
vn 0.337804 0.941217 0.000000
vn 0.337804 0.941217 0.000000
vn 0.337804 0.941217 0.000000
vn -0.814790 -0.579756 0.000000
vn -0.814790 -0.579756 0.000000
vn -0.814790 -0.579756 0.000000
vn -0.814790 -0.579756 0.000000
vn -0.984992 -0.172601 0.000000
vn -0.984992 -0.172601 0.000000
vn -0.984992 -0.172601 0.000000
vn -0.984992 -0.172601 0.000000
vn 0.673284 -0.739384 0.000000
vn 0.673284 -0.739384 0.000000
vn 0.673284 -0.739384 0.000000
vn 0.673284 -0.739384 0.000000
vn -0.657193 -0.753722 0.000000
vn -0.657193 -0.753722 0.000000
vn -0.657193 -0.753722 0.000000
vn -0.657193 -0.753722 0.000000
vn 0.868007 -0.496553 0.000000
vn 0.868007 -0.496553 0.000000
vn 0.868007 -0.496553 0.000000
vn 0.868007 -0.496553 0.000000
vn 0.978747 0.205070 0.000000
vn 0.978747 0.205070 0.000000
vn 0.978747 0.205070 0.000000
vn 0.978747 0.205070 0.000000
vn 0.568043 0.822999 0.000000
vn 0.568043 0.822999 0.000000
vn 0.568043 0.822999 0.000000
vn 0.568043 0.822999 0.000000
s 1
g icon_video
usemtl lambert2SG
f 29/45/1 28/46/2 30/2/3
f 30/2/3 28/46/2 31/3/4
f 33/48/5 32/1/6 34/47/7
f 36/49/8 35/50/9 37/8/10
f 37/8/10 35/50/9 38/15/11
f 39/14/12 38/15/11 35/50/9
f 34/47/7 32/1/6 40/51/13
f 41/53/14 32/1/6 42/52/15
f 33/48/5 29/45/1 32/1/6
f 42/52/15 32/1/6 30/2/3
f 29/45/1 30/2/3 32/1/6
f 43/55/16 31/3/4 44/54/17
f 30/2/3 31/3/4 42/52/15
f 42/52/15 31/3/4 43/55/16
f 44/54/17 31/3/4 28/46/2
f 45/13/18 39/14/12 46/32/19
f 46/56/19 39/14/12 35/50/9
f 47/7/20 48/10/21 49/6/22
f 49/6/22 48/10/21 50/9/23
f 52/58/24 51/11/25 53/57/26
f 53/57/26 51/11/25 54/12/27
f 51/11/25 52/58/24 55/36/28
f 55/60/28 52/58/24 56/59/29
s off
f 47/63/30 49/61/31 57/62/32
s 1
f 40/51/13 32/1/6 47/63/20
f 47/63/20 32/1/6 48/10/21
f 48/65/21 32/1/6 58/64/33
f 41/53/14 59/66/34 32/1/6
f 32/1/6 59/66/34 58/64/33
f 60/16/35 61/19/36 37/8/10
f 37/8/10 61/19/36 62/20/37
f 37/8/10 62/20/37 36/49/8
f 36/49/8 62/20/37 63/67/38
f 38/15/11 60/16/35 37/8/10
f 53/57/26 54/12/27 46/56/19
f 46/56/19 54/12/27 45/13/18
f 49/61/22 50/9/23 64/68/39
f 55/60/28 64/68/39 51/11/25
f 65/5/40 51/11/25 50/9/23
f 50/9/23 51/11/25 64/68/39
f 54/12/27 51/11/25 65/5/40
f 45/13/18 54/12/27 65/5/40
f 45/13/18 65/5/40 39/14/12
f 39/14/12 65/5/40 66/4/41
f 66/4/41 38/15/11 39/14/12
f 65/5/40 50/9/23 66/4/41
f 50/9/23 48/65/21 66/69/41
f 66/69/41 58/64/33 38/15/11
f 38/15/11 58/64/33 60/16/35
f 58/64/33 67/18/42 60/16/35
f 67/18/42 61/19/36 60/16/35
f 67/18/42 58/64/33 59/66/34
f 68/70/43 61/19/36 59/66/34
f 59/66/34 61/19/36 67/18/42
f 61/19/36 68/70/43 62/20/37
f 62/20/37 68/70/43 69/71/44
f 63/67/38 62/20/37 69/71/44
s off
f 2/21/45 1/22/46 28/46/47 29/45/48
f 4/23/49 3/24/50 33/48/51 34/47/52
f 5/25/53 6/26/54 35/50/55 36/49/56
f 7/27/57 4/23/58 34/47/59 40/51/60
f 8/28/61 9/29/62 41/53/63 42/52/64
f 3/24/65 2/21/66 29/45/67 33/48/68
f 11/30/69 10/31/70 43/55/71 44/54/72
f 10/31/73 8/28/74 42/52/75 43/55/76
f 1/22/77 11/30/78 44/54/79 28/46/80
f 6/26/81 12/32/82 46/56/83 35/50/84
f 17/33/85 16/34/86 52/58/87 53/57/88
f 16/34/89 19/35/90 56/59/91 52/58/92
f 19/35/93 18/36/94 55/60/95 56/59/96
f 15/37/97 20/38/98 57/62/99 49/61/100
f 20/38/101 13/39/102 47/63/103 57/62/104
f 13/39/105 7/27/106 40/51/107 47/63/108
f 22/17/109 14/10/110 48/65/111 58/64/112
f 9/29/113 21/40/114 59/66/115 41/53/116
f 23/41/117 5/25/118 36/49/119 63/67/120
f 12/32/121 17/33/122 53/57/123 46/56/124
f 24/42/125 15/37/126 49/61/127 64/68/128
f 18/36/129 24/42/130 64/68/131 55/60/132
f 14/10/133 25/4/134 66/69/135 48/65/136
f 25/4/137 22/17/138 58/64/139 66/69/140
f 21/40/141 26/43/142 68/70/143 59/66/144
f 26/43/145 27/44/146 69/71/147 68/70/148
f 27/44/149 23/41/150 63/67/151 69/71/152
